STARTFONT 2.1
FONT -DEC-FrankRuhl-Medium-O-Normal--14-140-75-75-P-81-ISO8859-8
SIZE 14 75 75
FONTBOUNDINGBOX 13 15 0 -3

STARTPROPERTIES 26
FONTNAME_REGISTRY ""
FAMILY_NAME "FrankRuhl"
FOUNDRY "DEC"
WEIGHT_NAME "Medium"
SLANT "O"
SETWIDTH_NAME "Normal"
ADD_STYLE_NAME ""
PIXEL_SIZE 14
RESOLUTION_X 75
RESOLUTION_Y 75
SPACING "P"
AVERAGE_WIDTH 81
CHARSET_REGISTRY "ISO8859"
CHARSET_ENCODING "8"
CHARSET_COLLECTIONS "ASCII ISO8859-8 "
FULL_NAME "FrankRuhl Oblique"
COPYRIGHT "Digital Israel"
CAP_HEIGHT 11
X_HEIGHT 7
_DEC_DEVICE_FONTNAMES "PS=FrankRuhl-Oblique-ISOLatinHebrew"
QUAD_WIDTH 8
POINT_SIZE 140
WEIGHT 10
DEFAULT_CHAR 0
FONT_DESCENT 3
FONT_ASCENT 13
ENDPROPERTIES

CHARS 152

STARTCHAR space
ENCODING 32
SWIDTH 206 0
DWIDTH 3 0
BBX 1 1 0 0
BITMAP
00
ENDCHAR

STARTCHAR exclam
ENCODING 33
SWIDTH 343 0
DWIDTH 5 0
BBX 3 11 1 0
BITMAP
20
20
20
20
40
40
40
40
00
80
80
ENDCHAR

STARTCHAR quotedbl
ENCODING 34
SWIDTH 411 0
DWIDTH 6 0
BBX 4 4 1 7
BITMAP
50
50
A0
A0
ENDCHAR

STARTCHAR numbersign
ENCODING 35
SWIDTH 754 0
DWIDTH 11 0
BBX 10 10 0 0
BITMAP
0900
0900
0900
7FC0
1200
1200
FF80
2400
2400
2400
ENDCHAR

STARTCHAR dollar
ENCODING 36
SWIDTH 549 0
DWIDTH 8 0
BBX 7 13 0 -1
BITMAP
04
1C
2A
4A
50
50
38
14
14
A4
A8
70
20
ENDCHAR

STARTCHAR percent
ENCODING 37
SWIDTH 823 0
DWIDTH 12 0
BBX 11 11 0 0
BITMAP
3F00
4900
8A00
8A00
9400
64C0
0920
0A20
1220
1240
2180
ENDCHAR

STARTCHAR ampersand
ENCODING 38
SWIDTH 754 0
DWIDTH 11 0
BBX 10 11 0 0
BITMAP
0C00
1200
2200
2400
1800
31C0
5080
8900
8600
8440
7B80
ENDCHAR

STARTCHAR quoteright
ENCODING 39
SWIDTH 274 0
DWIDTH 4 0
BBX 3 4 0 7
BITMAP
60
20
40
80
ENDCHAR

STARTCHAR parenleft
ENCODING 40
SWIDTH 343 0
DWIDTH 5 0
BBX 4 13 0 -2
BITMAP
10
20
20
40
40
80
80
80
80
80
40
40
20
ENDCHAR

STARTCHAR parenright
ENCODING 41
SWIDTH 343 0
DWIDTH 5 0
BBX 4 13 0 -2
BITMAP
40
20
20
10
10
10
10
10
20
20
40
40
80
ENDCHAR

STARTCHAR asterisk
ENCODING 42
SWIDTH 411 0
DWIDTH 6 0
BBX 5 5 0 6
BITMAP
10
A8
70
A8
40
ENDCHAR

STARTCHAR plus
ENCODING 43
SWIDTH 549 0
DWIDTH 8 0
BBX 7 7 0 1
BITMAP
10
10
10
FE
10
10
10
ENDCHAR

STARTCHAR comma
ENCODING 44
SWIDTH 274 0
DWIDTH 4 0
BBX 3 4 0 -2
BITMAP
60
20
40
80
ENDCHAR

STARTCHAR minus
ENCODING 45
SWIDTH 617 0
DWIDTH 9 0
BBX 7 1 1 4
BITMAP
FE
ENDCHAR

STARTCHAR period
ENCODING 46
SWIDTH 274 0
DWIDTH 4 0
BBX 1 2 1 0
BITMAP
80
80
ENDCHAR

STARTCHAR slash
ENCODING 47
SWIDTH 617 0
DWIDTH 9 0
BBX 4 12 2 -1
BITMAP
10
10
10
20
20
20
40
40
40
80
80
80
ENDCHAR

STARTCHAR zero
ENCODING 48
SWIDTH 549 0
DWIDTH 8 0
BBX 7 11 0 0
BITMAP
1C
22
42
42
42
84
84
84
84
88
70
ENDCHAR

STARTCHAR one
ENCODING 49
SWIDTH 549 0
DWIDTH 8 0
BBX 5 11 0 0
BITMAP
08
18
68
08
10
10
10
10
20
20
F8
ENDCHAR

STARTCHAR two
ENCODING 50
SWIDTH 549 0
DWIDTH 8 0
BBX 7 11 0 0
BITMAP
1C
22
42
62
04
08
10
20
42
84
FC
ENDCHAR

STARTCHAR three
ENCODING 51
SWIDTH 549 0
DWIDTH 8 0
BBX 7 11 0 0
BITMAP
1C
22
62
02
04
18
04
04
C4
88
70
ENDCHAR

STARTCHAR four
ENCODING 52
SWIDTH 549 0
DWIDTH 8 0
BBX 7 11 0 0
BITMAP
02
06
0A
12
24
44
84
FE
08
08
3E
ENDCHAR

STARTCHAR five
ENCODING 53
SWIDTH 549 0
DWIDTH 8 0
BBX 7 11 0 0
BITMAP
3E
20
20
40
78
44
04
04
C4
88
70
ENDCHAR

STARTCHAR six
ENCODING 54
SWIDTH 549 0
DWIDTH 8 0
BBX 7 11 0 0
BITMAP
1C
22
46
40
B8
C4
84
84
84
88
70
ENDCHAR

STARTCHAR seven
ENCODING 55
SWIDTH 549 0
DWIDTH 8 0
BBX 7 11 0 0
BITMAP
FE
82
84
04
08
08
10
10
20
20
20
ENDCHAR

STARTCHAR eight
ENCODING 56
SWIDTH 549 0
DWIDTH 8 0
BBX 7 11 0 0
BITMAP
1C
22
42
42
24
38
48
84
84
88
70
ENDCHAR

STARTCHAR nine
ENCODING 57
SWIDTH 549 0
DWIDTH 8 0
BBX 7 11 0 0
BITMAP
1C
22
42
42
42
46
3A
04
C4
88
70
ENDCHAR

STARTCHAR colon
ENCODING 58
SWIDTH 274 0
DWIDTH 4 0
BBX 2 7 1 0
BITMAP
40
40
00
00
00
80
80
ENDCHAR

STARTCHAR semicolon
ENCODING 59
SWIDTH 274 0
DWIDTH 4 0
BBX 4 9 0 -2
BITMAP
10
10
00
00
00
60
20
40
80
ENDCHAR

STARTCHAR less
ENCODING 60
SWIDTH 617 0
DWIDTH 9 0
BBX 8 7 0 1
BITMAP
03
0C
30
C0
30
0C
03
ENDCHAR

STARTCHAR equal
ENCODING 61
SWIDTH 549 0
DWIDTH 8 0
BBX 7 4 0 2
BITMAP
FE
00
00
FE
ENDCHAR

STARTCHAR greater
ENCODING 62
SWIDTH 617 0
DWIDTH 9 0
BBX 8 7 0 1
BITMAP
C0
30
0C
03
0C
30
C0
ENDCHAR

STARTCHAR question
ENCODING 63
SWIDTH 411 0
DWIDTH 6 0
BBX 5 11 1 0
BITMAP
70
88
88
10
20
40
80
C0
00
80
80
ENDCHAR

STARTCHAR at
ENCODING 64
SWIDTH 823 0
DWIDTH 12 0
BBX 11 11 0 0
BITMAP
0F80
3040
4020
4F20
9120
A220
A240
A680
9B00
4040
3F80
ENDCHAR

STARTCHAR A
ENCODING 65
SWIDTH 754 0
DWIDTH 11 0
BBX 10 11 0 0
BITMAP
0400
0600
0A00
0A00
1300
1100
2100
3F80
4080
4080
E1C0
ENDCHAR

STARTCHAR B
ENCODING 66
SWIDTH 617 0
DWIDTH 9 0
BBX 8 11 0 0
BITMAP
7E
21
21
21
22
3C
42
41
41
42
FC
ENDCHAR

STARTCHAR C
ENCODING 67
SWIDTH 686 0
DWIDTH 10 0
BBX 9 11 0 0
BITMAP
1E80
2180
4080
4000
8000
8000
8000
8000
8100
4200
3C00
ENDCHAR

STARTCHAR D
ENCODING 68
SWIDTH 754 0
DWIDTH 11 0
BBX 10 11 0 0
BITMAP
7F00
2080
2040
2040
2040
2040
4040
4080
4080
4100
FE00
ENDCHAR

STARTCHAR E
ENCODING 69
SWIDTH 617 0
DWIDTH 9 0
BBX 8 11 0 0
BITMAP
7F
21
21
20
24
3C
44
40
41
41
FF
ENDCHAR

STARTCHAR F
ENCODING 70
SWIDTH 549 0
DWIDTH 8 0
BBX 8 11 0 0
BITMAP
7F
21
21
20
24
3C
44
40
40
40
E0
ENDCHAR

STARTCHAR G
ENCODING 71
SWIDTH 686 0
DWIDTH 10 0
BBX 9 11 0 0
BITMAP
1E80
2180
4080
4000
8000
8000
8380
8100
8100
4300
3D00
ENDCHAR

STARTCHAR H
ENCODING 72
SWIDTH 754 0
DWIDTH 11 0
BBX 10 11 0 0
BITMAP
71C0
2080
2080
2080
2080
3F00
4100
4100
4100
4100
E380
ENDCHAR

STARTCHAR I
ENCODING 73
SWIDTH 480 0
DWIDTH 7 0
BBX 4 11 1 0
BITMAP
70
20
20
20
20
20
40
40
40
40
E0
ENDCHAR

STARTCHAR J
ENCODING 74
SWIDTH 549 0
DWIDTH 8 0
BBX 7 11 0 0
BITMAP
0E
04
04
04
04
04
08
C8
88
88
70
ENDCHAR

STARTCHAR K
ENCODING 75
SWIDTH 686 0
DWIDTH 10 0
BBX 9 11 0 0
BITMAP
7380
2100
2200
2400
2800
3800
4C00
4400
4600
4200
E700
ENDCHAR

STARTCHAR L
ENCODING 76
SWIDTH 617 0
DWIDTH 9 0
BBX 8 11 0 0
BITMAP
70
20
20
20
20
20
40
40
41
41
FF
ENDCHAR

STARTCHAR M
ENCODING 77
SWIDTH 960 0
DWIDTH 14 0
BBX 13 11 0 0
BITMAP
7038
3030
3850
2850
2890
2C90
4520
4520
4620
4220
E270
ENDCHAR

STARTCHAR N
ENCODING 78
SWIDTH 823 0
DWIDTH 12 0
BBX 11 11 0 0
BITMAP
70E0
3040
3840
2840
2C40
2480
4680
4280
4380
4180
E080
ENDCHAR

STARTCHAR O
ENCODING 79
SWIDTH 686 0
DWIDTH 10 0
BBX 9 11 0 0
BITMAP
1E00
2100
4080
4080
8080
8080
8080
8100
8100
4200
3C00
ENDCHAR

STARTCHAR P
ENCODING 80
SWIDTH 686 0
DWIDTH 10 0
BBX 9 11 0 0
BITMAP
7F00
2080
2080
2080
2100
3E00
4000
4000
4000
4000
E000
ENDCHAR

STARTCHAR Q
ENCODING 81
SWIDTH 686 0
DWIDTH 10 0
BBX 9 13 0 -2
BITMAP
1E00
2100
4080
4080
8080
8080
8080
B900
C500
4600
3C00
0480
0300
ENDCHAR

STARTCHAR R
ENCODING 82
SWIDTH 754 0
DWIDTH 11 0
BBX 9 11 0 0
BITMAP
7E00
2100
2100
2100
2200
3C00
4400
4200
4200
4280
E100
ENDCHAR

STARTCHAR S
ENCODING 83
SWIDTH 686 0
DWIDTH 10 0
BBX 9 11 0 0
BITMAP
1E80
2180
4080
6000
3800
0E00
0300
0100
8100
C200
BC00
ENDCHAR

STARTCHAR T
ENCODING 84
SWIDTH 686 0
DWIDTH 10 0
BBX 9 11 0 0
BITMAP
FF80
8880
8880
0800
0800
0800
1000
1000
1000
1000
3800
ENDCHAR

STARTCHAR U
ENCODING 85
SWIDTH 823 0
DWIDTH 12 0
BBX 10 11 1 0
BITMAP
E1C0
4080
4080
4080
4080
8100
8100
8100
8100
4200
3C00
ENDCHAR

STARTCHAR V
ENCODING 86
SWIDTH 686 0
DWIDTH 10 0
BBX 10 11 0 0
BITMAP
E1C0
4080
4080
6100
2100
2200
3200
1400
1400
1800
1800
ENDCHAR

STARTCHAR W
ENCODING 87
SWIDTH 891 0
DWIDTH 13 0
BBX 13 11 0 0
BITMAP
E738
4210
4210
6310
2520
2520
2940
39C0
1080
1080
1080
ENDCHAR

STARTCHAR X
ENCODING 88
SWIDTH 686 0
DWIDTH 10 0
BBX 11 11 0 0
BITMAP
38E0
1840
0880
0D00
0600
0400
0E00
1200
2300
4100
E380
ENDCHAR

STARTCHAR Y
ENCODING 89
SWIDTH 617 0
DWIDTH 9 0
BBX 9 11 0 0
BITMAP
E380
4100
6200
2400
3800
1000
1000
2000
2000
2000
7000
ENDCHAR

STARTCHAR Z
ENCODING 90
SWIDTH 686 0
DWIDTH 10 0
BBX 9 11 0 0
BITMAP
7F80
4100
4200
0400
0800
0800
1000
2000
4100
8100
FF00
ENDCHAR

STARTCHAR bracketleft
ENCODING 91
SWIDTH 411 0
DWIDTH 6 0
BBX 6 13 0 -2
BITMAP
1C
10
10
20
20
20
20
40
40
40
80
80
E0
ENDCHAR

STARTCHAR backslash
ENCODING 92
SWIDTH 549 0
DWIDTH 8 0
BBX 6 11 1 0
BITMAP
80
80
40
40
20
20
10
10
08
08
04
ENDCHAR

STARTCHAR bracketright
ENCODING 93
SWIDTH 411 0
DWIDTH 6 0
BBX 6 13 0 -2
BITMAP
1C
04
04
08
08
08
10
10
10
10
20
20
E0
ENDCHAR

STARTCHAR asciicircum
ENCODING 94
SWIDTH 411 0
DWIDTH 6 0
BBX 5 6 0 5
BITMAP
20
20
50
50
88
88
ENDCHAR

STARTCHAR underscore
ENCODING 95
SWIDTH 617 0
DWIDTH 9 0
BBX 9 1 0 -2
BITMAP
FF80
ENDCHAR

STARTCHAR quoteleft
ENCODING 96
SWIDTH 274 0
DWIDTH 4 0
BBX 3 4 1 7
BITMAP
20
40
80
C0
ENDCHAR

STARTCHAR a
ENCODING 97
SWIDTH 617 0
DWIDTH 9 0
BBX 8 7 0 0
BITMAP
3A
46
82
84
84
8D
76
ENDCHAR

STARTCHAR b
ENCODING 98
SWIDTH 480 0
DWIDTH 7 0
BBX 6 11 0 0
BITMAP
60
20
20
40
58
64
44
84
84
88
70
ENDCHAR

STARTCHAR c
ENCODING 99
SWIDTH 411 0
DWIDTH 6 0
BBX 5 7 0 0
BITMAP
38
48
80
80
80
88
70
ENDCHAR

STARTCHAR d
ENCODING 100
SWIDTH 617 0
DWIDTH 9 0
BBX 8 11 0 0
BITMAP
03
01
01
02
3A
46
82
84
84
8D
76
ENDCHAR

STARTCHAR e
ENCODING 101
SWIDTH 411 0
DWIDTH 6 0
BBX 5 7 0 0
BITMAP
38
48
90
E0
80
88
70
ENDCHAR

STARTCHAR f
ENCODING 102
SWIDTH 343 0
DWIDTH 5 0
BBX 5 14 0 -3
BITMAP
18
28
20
20
F8
40
40
40
40
80
80
80
80
80
ENDCHAR

STARTCHAR g
ENCODING 103
SWIDTH 480 0
DWIDTH 7 0
BBX 9 11 0 -3
BITMAP
0180
0E00
1100
2100
2200
1C00
2000
3C00
4200
8200
7C00
ENDCHAR

STARTCHAR h
ENCODING 104
SWIDTH 617 0
DWIDTH 9 0
BBX 8 11 0 0
BITMAP
60
20
20
20
4C
52
62
42
84
85
86
ENDCHAR

STARTCHAR i
ENCODING 105
SWIDTH 274 0
DWIDTH 4 0
BBX 3 11 0 0
BITMAP
20
20
00
00
C0
40
40
80
80
A0
C0
ENDCHAR

STARTCHAR j
ENCODING 106
SWIDTH 274 0
DWIDTH 4 0
BBX 5 14 0 -3
BITMAP
08
08
00
00
30
10
10
10
10
20
20
20
A0
C0
ENDCHAR

STARTCHAR k
ENCODING 107
SWIDTH 549 0
DWIDTH 8 0
BBX 7 11 0 0
BITMAP
60
20
20
20
4C
52
64
58
90
92
8C
ENDCHAR

STARTCHAR l
ENCODING 108
SWIDTH 274 0
DWIDTH 4 0
BBX 3 11 0 0
BITMAP
60
20
20
20
40
40
40
80
80
A0
C0
ENDCHAR

STARTCHAR m
ENCODING 109
SWIDTH 960 0
DWIDTH 14 0
BBX 13 7 0 0
BITMAP
CC60
5290
6310
4210
8420
8428
8430
ENDCHAR

STARTCHAR n
ENCODING 110
SWIDTH 617 0
DWIDTH 9 0
BBX 8 7 0 0
BITMAP
CC
52
62
42
84
85
86
ENDCHAR

STARTCHAR o
ENCODING 111
SWIDTH 480 0
DWIDTH 7 0
BBX 6 7 0 0
BITMAP
38
44
84
84
84
88
70
ENDCHAR

STARTCHAR p
ENCODING 112
SWIDTH 480 0
DWIDTH 7 0
BBX 8 10 0 -3
BITMAP
36
19
11
21
21
32
2C
40
40
E0
ENDCHAR

STARTCHAR q
ENCODING 113
SWIDTH 549 0
DWIDTH 8 0
BBX 7 10 0 -3
BITMAP
3A
46
82
84
84
8C
74
08
08
1C
ENDCHAR

STARTCHAR r
ENCODING 114
SWIDTH 480 0
DWIDTH 7 0
BBX 6 7 0 0
BITMAP
CC
54
60
40
80
80
80
ENDCHAR

STARTCHAR s
ENCODING 115
SWIDTH 480 0
DWIDTH 7 0
BBX 6 7 0 0
BITMAP
3C
44
40
30
08
88
F0
ENDCHAR

STARTCHAR t
ENCODING 116
SWIDTH 343 0
DWIDTH 5 0
BBX 5 9 0 0
BITMAP
20
20
F8
40
40
40
80
A0
C0
ENDCHAR

STARTCHAR u
ENCODING 117
SWIDTH 617 0
DWIDTH 9 0
BBX 8 7 0 0
BITMAP
C2
42
42
84
8C
95
66
ENDCHAR

STARTCHAR v
ENCODING 118
SWIDTH 480 0
DWIDTH 7 0
BBX 6 7 0 0
BITMAP
CC
44
44
84
88
90
60
ENDCHAR

STARTCHAR w
ENCODING 119
SWIDTH 754 0
DWIDTH 11 0
BBX 10 7 0 0
BITMAP
C4C0
4440
4440
8840
8880
9900
6600
ENDCHAR

STARTCHAR x
ENCODING 120
SWIDTH 549 0
DWIDTH 8 0
BBX 9 7 0 0
BITMAP
3180
1200
0C00
0800
1800
2800
C600
ENDCHAR

STARTCHAR y
ENCODING 121
SWIDTH 480 0
DWIDTH 7 0
BBX 7 10 0 -3
BITMAP
C6
42
64
24
28
30
10
20
A0
C0
ENDCHAR

STARTCHAR z
ENCODING 122
SWIDTH 549 0
DWIDTH 8 0
BBX 7 7 0 0
BITMAP
72
4C
08
10
20
44
BC
ENDCHAR

STARTCHAR braceleft
ENCODING 123
SWIDTH 411 0
DWIDTH 6 0
BBX 6 13 0 -2
BITMAP
0C
10
10
10
20
C0
20
20
20
40
40
40
30
ENDCHAR

STARTCHAR bar
ENCODING 124
SWIDTH 549 0
DWIDTH 8 0
BBX 1 11 3 0
BITMAP
80
80
80
80
80
80
80
80
80
80
80
ENDCHAR

STARTCHAR braceright
ENCODING 125
SWIDTH 411 0
DWIDTH 6 0
BBX 6 13 0 -2
BITMAP
30
08
08
10
10
0C
10
10
10
20
20
20
C0
ENDCHAR

STARTCHAR asciitilde
ENCODING 126
SWIDTH 617 0
DWIDTH 9 0
BBX 8 2 0 4
BITMAP
71
8E
ENDCHAR

STARTCHAR cent
ENCODING 162
SWIDTH 549 0
DWIDTH 8 0
BBX 7 11 0 -2
BITMAP
04
04
3E
4A
90
90
90
A4
78
20
20
ENDCHAR

STARTCHAR sterling
ENCODING 163
SWIDTH 617 0
DWIDTH 9 0
BBX 8 11 0 0
BITMAP
06
09
13
10
10
7C
10
10
60
B1
CE
ENDCHAR

STARTCHAR currency
ENCODING 164
SWIDTH 549 0
DWIDTH 8 0
BBX 7 7 0 2
BITMAP
BA
44
82
82
82
44
BA
ENDCHAR

STARTCHAR yen
ENCODING 165
SWIDTH 617 0
DWIDTH 9 0
BBX 9 11 0 0
BITMAP
E380
4100
4200
2400
2800
FE00
1000
FC00
2000
2000
7000
ENDCHAR

STARTCHAR brokenbar
ENCODING 166
SWIDTH 549 0
DWIDTH 8 0
BBX 1 11 3 0
BITMAP
80
80
80
80
00
00
80
80
80
80
80
ENDCHAR

STARTCHAR section
ENCODING 167
SWIDTH 480 0
DWIDTH 7 0
BBX 6 13 0 -2
BITMAP
38
44
4C
20
50
88
84
44
28
10
C8
88
70
ENDCHAR

STARTCHAR dieresis
ENCODING 168
SWIDTH 480 0
DWIDTH 7 0
BBX 4 2 1 8
BITMAP
90
90
ENDCHAR

STARTCHAR copyright
ENCODING 169
SWIDTH 891 0
DWIDTH 13 0
BBX 12 11 0 0
BITMAP
0F00
30C0
4F20
5120
9010
9010
9110
4E20
4020
30C0
0F00
ENDCHAR

STARTCHAR multiply
ENCODING 170
SWIDTH 549 0
DWIDTH 8 0
BBX 7 7 0 1
BITMAP
82
44
28
10
28
44
82
ENDCHAR

STARTCHAR guillemotleft
ENCODING 171
SWIDTH 549 0
DWIDTH 8 0
BBX 7 6 0 1
BITMAP
12
24
48
90
48
24
ENDCHAR

STARTCHAR logicalnot
ENCODING 172
SWIDTH 549 0
DWIDTH 8 0
BBX 7 4 0 2
BITMAP
FE
02
02
02
ENDCHAR

STARTCHAR hyphen
ENCODING 173
SWIDTH 274 0
DWIDTH 4 0
BBX 3 1 0 4
BITMAP
E0
ENDCHAR

STARTCHAR registered
ENCODING 174
SWIDTH 891 0
DWIDTH 13 0
BBX 12 11 0 0
BITMAP
0F00
30C0
5E20
4920
8910
8E10
8910
59A0
4020
30C0
0F00
ENDCHAR

STARTCHAR macron
ENCODING 175
SWIDTH 411 0
DWIDTH 6 0
BBX 5 1 0 8
BITMAP
F8
ENDCHAR

STARTCHAR degree
ENCODING 176
SWIDTH 411 0
DWIDTH 6 0
BBX 4 4 1 7
BITMAP
60
90
90
60
ENDCHAR

STARTCHAR plusminus
ENCODING 177
SWIDTH 549 0
DWIDTH 8 0
BBX 7 7 0 1
BITMAP
10
10
FE
10
10
00
FE
ENDCHAR

STARTCHAR twosuperior
ENCODING 178
SWIDTH 343 0
DWIDTH 5 0
BBX 4 6 0 5
BITMAP
70
90
20
40
80
F0
ENDCHAR

STARTCHAR threesuperior
ENCODING 179
SWIDTH 343 0
DWIDTH 5 0
BBX 4 6 0 5
BITMAP
70
90
20
10
90
E0
ENDCHAR

STARTCHAR acute
ENCODING 180
SWIDTH 274 0
DWIDTH 4 0
BBX 3 3 0 8
BITMAP
20
40
80
ENDCHAR

STARTCHAR mu
ENCODING 181
SWIDTH 617 0
DWIDTH 9 0
BBX 9 10 0 -3
BITMAP
6100
2100
2100
4200
4600
4A80
B300
8000
8000
C000
ENDCHAR

STARTCHAR paragraph
ENCODING 182
SWIDTH 617 0
DWIDTH 9 0
BBX 8 11 0 0
BITMAP
3F
6A
CA
8A
CA
7A
14
14
14
14
3E
ENDCHAR

STARTCHAR periodcentered
ENCODING 183
SWIDTH 343 0
DWIDTH 5 0
BBX 2 2 1 4
BITMAP
C0
C0
ENDCHAR

STARTCHAR cedilla
ENCODING 184
SWIDTH 343 0
DWIDTH 5 0
BBX 3 3 0 -3
BITMAP
40
20
C0
ENDCHAR

STARTCHAR onesuperior
ENCODING 185
SWIDTH 343 0
DWIDTH 5 0
BBX 3 6 0 5
BITMAP
20
60
20
40
40
E0
ENDCHAR

STARTCHAR divide
ENCODING 186
SWIDTH 549 0
DWIDTH 8 0
BBX 7 7 0 1
BITMAP
10
10
00
FE
00
10
10
ENDCHAR

STARTCHAR guillemotright
ENCODING 187
SWIDTH 549 0
DWIDTH 8 0
BBX 7 6 0 1
BITMAP
48
24
12
24
48
90
ENDCHAR

STARTCHAR onequarter
ENCODING 188
SWIDTH 823 0
DWIDTH 12 0
BBX 10 11 0 0
BITMAP
2100
6100
2200
4200
4400
E480
0980
1280
1480
27C0
2100
ENDCHAR

STARTCHAR onehalf
ENCODING 189
SWIDTH 823 0
DWIDTH 12 0
BBX 10 11 0 0
BITMAP
2100
6100
2200
4200
4400
E5C0
0A40
1080
1100
2200
23C0
ENDCHAR

STARTCHAR threequarters
ENCODING 190
SWIDTH 823 0
DWIDTH 12 0
BBX 10 11 0 0
BITMAP
7100
9100
2200
1200
9400
E480
0980
1280
1480
27C0
2100
ENDCHAR

STARTCHAR dblunderscore
ENCODING 223
SWIDTH 480 0
DWIDTH 7 0
BBX 7 7 0 -3
BITMAP
00
00
FE
00
00
FE
00
ENDCHAR

STARTCHAR aleph
ENCODING 224
SWIDTH 617 0
DWIDTH 9 0
BBX 9 9 0 0
BITMAP
1200
1380
1900
1A00
2A00
4C00
4400
2400
E400
ENDCHAR

STARTCHAR beth
ENCODING 225
SWIDTH 549 0
DWIDTH 8 0
BBX 7 10 0 0
BITMAP
00
10
1E
02
02
02
04
04
04
FE
ENDCHAR

STARTCHAR gimmel
ENCODING 226
SWIDTH 549 0
DWIDTH 8 0
BBX 7 9 0 0
BITMAP
08
0E
02
02
02
04
0C
16
E4
ENDCHAR

STARTCHAR daleth
ENCODING 227
SWIDTH 549 0
DWIDTH 8 0
BBX 8 10 0 -1
BITMAP
10
3F
02
02
02
04
04
06
04
00
ENDCHAR

STARTCHAR he
ENCODING 228
SWIDTH 549 0
DWIDTH 8 0
BBX 8 10 0 -1
BITMAP
10
3F
01
01
21
22
42
63
42
00
ENDCHAR

STARTCHAR waw
ENCODING 229
SWIDTH 343 0
DWIDTH 5 0
BBX 4 10 1 -1
BITMAP
40
70
10
10
10
20
20
20
20
00
ENDCHAR

STARTCHAR zayin
ENCODING 230
SWIDTH 411 0
DWIDTH 6 0
BBX 6 10 0 -1
BITMAP
20
7C
10
20
20
20
40
60
40
00
ENDCHAR

STARTCHAR het
ENCODING 231
SWIDTH 617 0
DWIDTH 9 0
BBX 8 10 1 -1
BITMAP
20
7F
21
42
42
42
84
C6
84
00
ENDCHAR

STARTCHAR teth
ENCODING 232
SWIDTH 686 0
DWIDTH 10 0
BBX 10 9 0 0
BITMAP
1080
39C0
12C0
2040
4080
4080
4100
4600
7C00
ENDCHAR

STARTCHAR yod
ENCODING 233
SWIDTH 343 0
DWIDTH 5 0
BBX 4 7 1 2
BITMAP
40
F0
30
20
40
80
00
ENDCHAR

STARTCHAR kaphfinal
ENCODING 234
SWIDTH 549 0
DWIDTH 8 0
BBX 8 12 0 -3
BITMAP
20
7F
02
02
04
04
04
08
08
18
10
00
ENDCHAR

STARTCHAR kaph
ENCODING 235
SWIDTH 549 0
DWIDTH 8 0
BBX 8 10 0 -1
BITMAP
20
3E
03
01
01
02
02
0C
F0
00
ENDCHAR

STARTCHAR lamed
ENCODING 236
SWIDTH 480 0
DWIDTH 7 0
BBX 7 12 0 -1
BITMAP
60
30
40
7C
06
02
04
08
10
30
30
00
ENDCHAR

STARTCHAR memfinal
ENCODING 237
SWIDTH 549 0
DWIDTH 8 0
BBX 8 10 0 -1
BITMAP
40
7E
21
41
41
82
82
82
FE
00
ENDCHAR

STARTCHAR mem
ENCODING 238
SWIDTH 754 0
DWIDTH 11 0
BBX 11 9 0 0
BITMAP
0840
1DE0
0660
0820
1020
3040
2040
6080
4F00
ENDCHAR

STARTCHAR nunfinal
ENCODING 239
SWIDTH 274 0
DWIDTH 4 0
BBX 4 11 0 -2
BITMAP
40
70
10
10
20
20
20
40
40
C0
80
ENDCHAR

STARTCHAR nun
ENCODING 240
SWIDTH 343 0
DWIDTH 5 0
BBX 5 9 0 0
BITMAP
20
38
08
08
08
10
10
30
E0
ENDCHAR

STARTCHAR samekh
ENCODING 241
SWIDTH 617 0
DWIDTH 9 0
BBX 9 9 0 0
BITMAP
1000
3F00
1080
2080
4080
4100
4100
6200
3C00
ENDCHAR

STARTCHAR ayin
ENCODING 242
SWIDTH 549 0
DWIDTH 8 0
BBX 8 10 0 -1
BITMAP
44
77
21
21
32
12
14
18
F0
00
ENDCHAR

STARTCHAR pefinal
ENCODING 243
SWIDTH 549 0
DWIDTH 8 0
BBX 8 12 0 -3
BITMAP
20
7E
23
41
E1
A2
02
04
04
0C
08
00
ENDCHAR

STARTCHAR pe
ENCODING 244
SWIDTH 617 0
DWIDTH 9 0
BBX 9 10 0 -1
BITMAP
1000
3F00
1180
2080
7100
5100
0200
0200
FC00
0000
ENDCHAR

STARTCHAR zadikfinal
ENCODING 245
SWIDTH 480 0
DWIDTH 7 0
BBX 7 11 0 -2
BITMAP
44
EE
24
28
30
20
20
40
40
C0
80
ENDCHAR

STARTCHAR zadik
ENCODING 246
SWIDTH 549 0
DWIDTH 8 0
BBX 8 9 0 0
BITMAP
22
77
12
14
0C
08
04
04
F8
ENDCHAR

STARTCHAR kof
ENCODING 247
SWIDTH 617 0
DWIDTH 9 0
BBX 9 11 0 -2
BITMAP
1000
3F00
0180
0080
2100
2200
2400
4800
4800
C000
8000
ENDCHAR

STARTCHAR resh
ENCODING 248
SWIDTH 411 0
DWIDTH 6 0
BBX 6 9 0 0
BITMAP
20
7C
04
04
04
08
08
18
10
ENDCHAR

STARTCHAR shin
ENCODING 249
SWIDTH 823 0
DWIDTH 12 0
BBX 11 9 1 0
BITMAP
4480
76E0
1220
2420
4440
4880
4980
5300
7E00
ENDCHAR

STARTCHAR taf
ENCODING 250
SWIDTH 617 0
DWIDTH 9 0
BBX 9 9 0 0
BITMAP
1000
3F00
0980
1080
2080
2100
2100
2300
E200
ENDCHAR
ENDFONT
